%TF.GenerationSoftware,KiCad,Pcbnew,9.0.4*%
%TF.CreationDate,2026-08-13T13:41:13-07:00*%
%TF.ProjectId,nfc_card,6e66635f-6361-4726-942e-6b696361645f,rev?*%
%TF.SameCoordinates,Original*%
%TF.FileFunction,Copper,L2,Bot*%
%TF.FilePolarity,Positive*%
%FSLAX46Y46*%
G04 Gerber Fmt 4.6, Leading zero omitted, Abs format (unit mm)*
G04 Created by KiCad (PCBNEW 9.0.4) date 2026-08-13 13:41:13*
%MOMM*%
%LPD*%
G01*
G04 APERTURE LIST*
%TA.AperFunction,ComponentPad*%
%ADD10R,1.700000X1.700000*%
%TD*%
%TA.AperFunction,ComponentPad*%
%ADD11C,1.700000*%
%TD*%
%TA.AperFunction,ViaPad*%
%ADD12C,1.000000*%
%TD*%
%TA.AperFunction,ViaPad*%
%ADD13C,0.750000*%
%TD*%
%TA.AperFunction,ViaPad*%
%ADD14C,0.600000*%
%TD*%
%TA.AperFunction,Conductor*%
%ADD15C,1.000000*%
%TD*%
%TA.AperFunction,Conductor*%
%ADD16C,0.200000*%
%TD*%
G04 APERTURE END LIST*
D10*
%TO.P,J2,1,Pin_1*%
%TO.N,VDD*%
X138000000Y-63075000D03*
D11*
%TO.P,J2,2,Pin_2*%
%TO.N,GND*%
X138000000Y-60535000D03*
%TD*%
D10*
%TO.P,J3,1,Pin_1*%
%TO.N,SPI_DATA*%
X139080000Y-49000000D03*
D11*
%TO.P,J3,2,Pin_2*%
%TO.N,SPI_SCLK*%
X136540000Y-49000000D03*
%TO.P,J3,3,Pin_3*%
%TO.N,SPI_MISO*%
X134000000Y-49000000D03*
%TO.P,J3,4,Pin_4*%
%TO.N,SPI_MOSI*%
X131460000Y-49000000D03*
%TD*%
D10*
%TO.P,J1,1,Pin_1*%
%TO.N,SWCLK*%
X141800000Y-69700000D03*
D11*
%TO.P,J1,2,Pin_2*%
%TO.N,SWDIO*%
X141800000Y-67160000D03*
%TD*%
D12*
%TO.N,Net-(U1-AC0)*%
X130500000Y-79500000D03*
D13*
X130000000Y-73500000D03*
%TO.N,GND*%
X128100000Y-57000000D03*
D14*
X134000000Y-54500000D03*
D13*
X142275000Y-52800000D03*
X123200000Y-57100000D03*
X126200000Y-54550000D03*
X129050000Y-54200000D03*
X142275000Y-54200000D03*
X124300000Y-64600000D03*
X123000000Y-51000000D03*
X131700000Y-64400000D03*
X141700000Y-58100000D03*
X126262500Y-60662500D03*
X129050000Y-52800000D03*
%TD*%
D15*
%TO.N,Net-(U1-AC0)*%
X130500000Y-79500000D02*
X130500000Y-74000000D01*
X130500000Y-74000000D02*
X130000000Y-73500000D01*
D16*
%TO.N,GND*%
X124900000Y-52900000D02*
X125000000Y-52900000D01*
X123000000Y-51000000D02*
X124900000Y-52900000D01*
%TD*%
%TA.AperFunction,Conductor*%
%TO.N,GND*%
G36*
X142942530Y-52519965D02*
G01*
X142988542Y-52572545D01*
X143000000Y-52624606D01*
X143000000Y-64776000D01*
X142980315Y-64843039D01*
X142927511Y-64888794D01*
X142876000Y-64900000D01*
X122624000Y-64900000D01*
X122556961Y-64880315D01*
X122511206Y-64827511D01*
X122500000Y-64776000D01*
X122500000Y-62177135D01*
X136649500Y-62177135D01*
X136649500Y-63972870D01*
X136649501Y-63972876D01*
X136655908Y-64032483D01*
X136706202Y-64167328D01*
X136706206Y-64167335D01*
X136792452Y-64282544D01*
X136792455Y-64282547D01*
X136907664Y-64368793D01*
X136907671Y-64368797D01*
X137042517Y-64419091D01*
X137042516Y-64419091D01*
X137049444Y-64419835D01*
X137102127Y-64425500D01*
X138897872Y-64425499D01*
X138957483Y-64419091D01*
X139092331Y-64368796D01*
X139207546Y-64282546D01*
X139293796Y-64167331D01*
X139344091Y-64032483D01*
X139350500Y-63972873D01*
X139350499Y-62177128D01*
X139344091Y-62117517D01*
X139293796Y-61982669D01*
X139293795Y-61982668D01*
X139293793Y-61982664D01*
X139207547Y-61867455D01*
X139207544Y-61867452D01*
X139092335Y-61781206D01*
X139092328Y-61781202D01*
X138957482Y-61730908D01*
X138957483Y-61730908D01*
X138897883Y-61724501D01*
X138897881Y-61724500D01*
X138897873Y-61724500D01*
X138897865Y-61724500D01*
X138887309Y-61724500D01*
X138820270Y-61704815D01*
X138799628Y-61688181D01*
X138129408Y-61017962D01*
X138192993Y-61000925D01*
X138307007Y-60935099D01*
X138400099Y-60842007D01*
X138465925Y-60727993D01*
X138482962Y-60664408D01*
X139115270Y-61296717D01*
X139115270Y-61296716D01*
X139154622Y-61242554D01*
X139251095Y-61053217D01*
X139316757Y-60851130D01*
X139316757Y-60851127D01*
X139350000Y-60641246D01*
X139350000Y-60428753D01*
X139316757Y-60218872D01*
X139316757Y-60218869D01*
X139251095Y-60016782D01*
X139154624Y-59827449D01*
X139115270Y-59773282D01*
X139115269Y-59773282D01*
X138482962Y-60405590D01*
X138465925Y-60342007D01*
X138400099Y-60227993D01*
X138307007Y-60134901D01*
X138192993Y-60069075D01*
X138129409Y-60052037D01*
X138761716Y-59419728D01*
X138707550Y-59380375D01*
X138518217Y-59283904D01*
X138316129Y-59218242D01*
X138106246Y-59185000D01*
X137893754Y-59185000D01*
X137683872Y-59218242D01*
X137683869Y-59218242D01*
X137481782Y-59283904D01*
X137292439Y-59380380D01*
X137238282Y-59419727D01*
X137238282Y-59419728D01*
X137870591Y-60052037D01*
X137807007Y-60069075D01*
X137692993Y-60134901D01*
X137599901Y-60227993D01*
X137534075Y-60342007D01*
X137517037Y-60405591D01*
X136884728Y-59773282D01*
X136884727Y-59773282D01*
X136845380Y-59827439D01*
X136748904Y-60016782D01*
X136683242Y-60218869D01*
X136683242Y-60218872D01*
X136650000Y-60428753D01*
X136650000Y-60641246D01*
X136683242Y-60851127D01*
X136683242Y-60851130D01*
X136748904Y-61053217D01*
X136845375Y-61242550D01*
X136884728Y-61296716D01*
X137517037Y-60664408D01*
X137534075Y-60727993D01*
X137599901Y-60842007D01*
X137692993Y-60935099D01*
X137807007Y-61000925D01*
X137870590Y-61017962D01*
X137200370Y-61688181D01*
X137139047Y-61721666D01*
X137112698Y-61724500D01*
X137102134Y-61724500D01*
X137102123Y-61724501D01*
X137042516Y-61730908D01*
X136907671Y-61781202D01*
X136907664Y-61781206D01*
X136792455Y-61867452D01*
X136792452Y-61867455D01*
X136706206Y-61982664D01*
X136706202Y-61982671D01*
X136655908Y-62117517D01*
X136649501Y-62177116D01*
X136649501Y-62177123D01*
X136649500Y-62177135D01*
X122500000Y-62177135D01*
X122500000Y-52723397D01*
X122519685Y-52656358D01*
X122572489Y-52610603D01*
X122623394Y-52599398D01*
X142875397Y-52500607D01*
X142942530Y-52519965D01*
G37*
%TD.AperFunction*%
%TD*%
M02*
